<svg width="24" height="27" viewBox="0 0 24 27" fill="none" xmlns="http://www.w3.org/2000/svg">
<path d="M1.9841 7.75H21.809C21.9421 7.75 22.0518 7.85421 22.0587 7.98709L22.9897 25.9871C22.9971 26.13 22.8832 26.25 22.74 26.25H1.05306C0.909917 26.25 0.796001 26.13 0.803395 25.9871L1.73443 7.98709C1.7413 7.85421 1.85104 7.75 1.9841 7.75Z" stroke="#313133" stroke-width="1.5"/>
<path fill-rule="evenodd" clip-rule="evenodd" d="M17.0859 11C17.1097 10.5236 17.1207 10.0233 17.1207 9.5C17.1207 6.91613 16.8311 4.8828 16.057 3.52568C15.6896 2.88159 15.2181 2.39998 14.6002 2.06735C13.9725 1.72948 13.1086 1.5 11.8965 1.5C10.6845 1.5 9.82059 1.72948 9.19293 2.06735C8.575 2.39998 8.10351 2.88159 7.73613 3.52568C6.96203 4.8828 6.67241 6.91613 6.67241 9.5C6.67241 10.023 6.6726 10.5224 6.67877 11H5.1786C5.17241 10.5114 5.17241 10.0104 5.17241 9.5C5.17241 4.25329 6.2931 0 11.8965 0C17.5 0 18.6207 4.25329 18.6207 9.5C18.6207 10.0104 18.6109 10.5114 18.588 11H17.0859Z" fill="#313133"/>
</svg>
